<?xml version="1.0" standalone="no"?>
<!DOCTYPE svg PUBLIC "-//W3C//DTD SVG 20010904//EN"
 "http://www.w3.org/TR/2001/REC-SVG-20010904/DTD/svg10.dtd">
<svg version="1.0" xmlns="http://www.w3.org/2000/svg"
 width="512.000000pt" height="512.000000pt" viewBox="0 0 512.000000 512.000000"
 preserveAspectRatio="xMidYMid meet">

<g transform="translate(0.000000,512.000000) scale(0.100000,-0.100000)"
fill="#000000" stroke="none">
<path d="M190 4691 c-81 -17 -158 -87 -179 -164 -9 -31 -11 -538 -9 -1972 l3
-1930 22 -41 c36 -66 70 -101 131 -131 53 -26 65 -28 220 -31 192 -5 234 3
254 48 l13 30 96 0 c96 0 97 0 103 -26 15 -57 -103 -55 2069 -52 l1992 3 57
28 c61 30 95 64 131 131 l22 41 3 1930 c2 1434 0 1941 -9 1972 -14 53 -68 117
-123 146 l-41 22 -2000 3 c-1100 1 -2015 0 -2033 -3 -70 -13 -95 -82 -47 -130
l24 -25 1985 0 1986 0 7 -27 c5 -16 8 -806 8 -1758 0 -1391 -3 -1734 -13
-1753 -12 -22 -16 -22 -196 -22 -178 0 -183 -1 -204 -23 -12 -13 -22 -31 -22
-40 0 -15 -13 -17 -100 -17 -90 0 -100 2 -100 18 0 10 -10 28 -23 40 l-23 22
-1992 0 -1991 0 -28 24 -28 24 -3 1704 c-1 936 0 1718 3 1736 3 17 16 41 27
52 20 19 36 20 214 20 178 0 193 1 218 21 46 36 32 108 -25 128 -35 12 -341
13 -399 2z"/>
<path d="M4518 4420 c-14 -11 -40 -42 -58 -70 l-32 -50 -36 25 c-52 35 -96 33
-133 -6 -16 -17 -29 -35 -29 -39 0 -4 -32 -8 -71 -8 -243 -3 -451 -184 -489
-427 -14 -85 -7 -146 27 -247 l26 -76 -22 -30 c-38 -54 -24 -96 49 -143 l25
-17 -115 -170 -115 -171 -13 62 c-67 318 -204 582 -414 802 -390 408 -936 580
-1484 465 -258 -54 -528 -189 -724 -365 -677 -605 -722 -1634 -98 -2290 224
-236 517 -398 846 -467 91 -19 137 -23 312 -22 229 0 309 13 505 78 592 198
1013 733 1076 1365 l11 115 170 253 c93 139 172 253 174 253 3 0 22 -11 42
-25 50 -34 83 -32 121 7 17 17 31 35 31 40 0 4 28 8 63 8 234 0 438 163 492
392 25 107 17 195 -26 305 l-21 52 21 30 c12 16 21 43 21 61 0 31 -7 40 -68
87 l-22 18 40 60 c53 80 52 122 -7 153 -30 17 -47 15 -75 -8z m-85 -308 c33
-22 36 -27 25 -44 -7 -10 -114 -169 -238 -353 -124 -184 -228 -335 -233 -335
-12 0 -117 72 -117 81 0 5 106 166 236 359 l237 350 26 -16 c14 -10 43 -29 64
-42z m-2410 -1303 c38 -47 3 -119 -59 -119 -70 0 -99 76 -48 127 20 20 31 24
57 19 18 -3 40 -16 50 -27z m832 -664 c14 -13 25 -36 25 -50 0 -14 -11 -37
-25 -50 -49 -50 -125 -19 -125 50 0 70 76 100 125 50z"/>
<path d="M547 4349 c-166 -39 -232 -245 -119 -371 48 -53 102 -78 172 -78 171
0 280 175 205 327 -31 62 -81 102 -149 120 -56 15 -56 15 -109 2z m97 -170
c19 -15 26 -30 26 -54 0 -36 -36 -75 -70 -75 -34 0 -70 39 -70 75 0 36 36 75
70 75 10 0 29 -9 44 -21z"/>
<path d="M4345 2921 c-22 -10 -54 -34 -72 -52 -58 -62 -63 -86 -63 -320 l0
-212 -25 -23 -25 -23 0 -236 0 -236 25 -23 25 -23 0 -214 c0 -187 3 -219 19
-254 83 -179 334 -180 417 -1 23 48 24 61 24 260 0 207 0 208 25 238 l25 30 0
223 0 223 -25 30 c-25 30 -25 31 -25 238 0 199 -1 212 -24 260 -53 114 -190
167 -301 115z m225 -866 l0 -125 -130 0 -130 0 0 125 0 125 130 0 130 0 0
-125z"/>
<path d="M3579 1911 l-24 -19 0 -342 0 -342 24 -19 c21 -17 41 -19 205 -19
178 0 183 1 204 23 22 23 22 28 22 359 l0 337 -26 20 c-25 19 -40 21 -204 21
-160 0 -180 -2 -201 -19z m279 -208 l3 -73 -76 0 -75 0 0 75 0 76 73 -3 72 -3
3 -72z m2 -303 l0 -70 -75 0 -75 0 0 70 0 70 75 0 75 0 0 -70z"/>
<path d="M527 1616 c-58 -21 -103 -61 -131 -118 -46 -92 -30 -184 45 -260 146
-146 389 -41 389 168 0 114 -113 223 -230 223 -19 0 -52 -6 -73 -13z m128
-166 c28 -31 24 -79 -9 -107 -34 -29 -58 -29 -92 0 -32 28 -36 78 -8 108 24
26 85 25 109 -1z"/>
</g>
</svg>
